<mxfile host="app.diagrams.net" agent="Mozilla/5.0 (Windows NT 10.0; Win64; x64) AppleWebKit/537.36 (KHTML, like Gecko) Chrome/135.0.0.0 Safari/537.36 Edg/135.0.0.0" version="26.2.10">
  <diagram name="Page-1" id="0KWAzoc_lnsQrc2Dok03">
    <mxGraphModel grid="1" page="1" gridSize="10" guides="1" tooltips="1" connect="1" arrows="1" fold="1" pageScale="1" pageWidth="850" pageHeight="1100" math="0" shadow="0">
      <root>
        <mxCell id="0" />
        <mxCell id="1" parent="0" />
        <mxCell id="xOjnY0KziKzDUrAcWFAt-1" value="&lt;pre style=&quot;user-select: text; font-family: &amp;quot;Courier New&amp;quot;, Courier, monospace, arial, sans-serif; margin-top: 0px; margin-bottom: 0px; text-wrap-mode: wrap; overflow-wrap: break-word; background-color: rgb(255, 255, 255); font-size: 14px; text-align: left;&quot; class=&quot;ndfHFb-c4YZDc-fmcmS-DARUcf&quot;&gt;Users&lt;/pre&gt;" style="rounded=1;arcSize=10;whiteSpace=wrap;html=1;align=center;" vertex="1" parent="1">
          <mxGeometry x="-520" y="190" width="100" height="40" as="geometry" />
        </mxCell>
        <mxCell id="xOjnY0KziKzDUrAcWFAt-2" value="&lt;pre style=&quot;user-select: text; font-family: &amp;quot;Courier New&amp;quot;, Courier, monospace, arial, sans-serif; margin-top: 0px; margin-bottom: 0px; text-wrap-mode: wrap; overflow-wrap: break-word; background-color: rgb(255, 255, 255); font-size: 14px; text-align: left;&quot; class=&quot;ndfHFb-c4YZDc-fmcmS-DARUcf&quot;&gt;name&lt;/pre&gt;" style="ellipse;whiteSpace=wrap;html=1;align=center;" vertex="1" parent="1">
          <mxGeometry x="-820" y="30" width="100" height="40" as="geometry" />
        </mxCell>
        <mxCell id="xOjnY0KziKzDUrAcWFAt-3" value="&lt;pre style=&quot;user-select: text; font-family: &amp;quot;Courier New&amp;quot;, Courier, monospace, arial, sans-serif; margin-top: 0px; margin-bottom: 0px; text-wrap-mode: wrap; overflow-wrap: break-word; background-color: rgb(255, 255, 255); font-size: 14px; text-align: left;&quot; class=&quot;ndfHFb-c4YZDc-fmcmS-DARUcf&quot;&gt;email&lt;/pre&gt;" style="ellipse;whiteSpace=wrap;html=1;align=center;" vertex="1" parent="1">
          <mxGeometry x="-710" y="30" width="100" height="40" as="geometry" />
        </mxCell>
        <mxCell id="LdDLsfg2pG7cTwmOzENp-2" value="&lt;pre style=&quot;user-select: text; font-family: &amp;quot;Courier New&amp;quot;, Courier, monospace, arial, sans-serif; margin-top: 0px; margin-bottom: 0px; text-wrap-mode: wrap; overflow-wrap: break-word; background-color: rgb(255, 255, 255); font-size: 14px; text-align: left;&quot; class=&quot;ndfHFb-c4YZDc-fmcmS-DARUcf&quot;&gt;Books&lt;/pre&gt;" style="rounded=1;arcSize=10;whiteSpace=wrap;html=1;align=center;" vertex="1" parent="1">
          <mxGeometry x="570" y="170" width="100" height="40" as="geometry" />
        </mxCell>
        <mxCell id="LdDLsfg2pG7cTwmOzENp-4" value="_id" style="ellipse;whiteSpace=wrap;html=1;align=center;fontStyle=4;" vertex="1" parent="1">
          <mxGeometry x="-830" y="80" width="100" height="40" as="geometry" />
        </mxCell>
        <mxCell id="LdDLsfg2pG7cTwmOzENp-5" value="&lt;pre style=&quot;user-select: text; font-family: &amp;quot;Courier New&amp;quot;, Courier, monospace, arial, sans-serif; margin-top: 0px; margin-bottom: 0px; text-wrap-mode: wrap; overflow-wrap: break-word; background-color: rgb(255, 255, 255); font-size: 14px; text-align: left;&quot; class=&quot;ndfHFb-c4YZDc-fmcmS-DARUcf&quot;&gt;password&lt;/pre&gt;" style="ellipse;whiteSpace=wrap;html=1;align=center;" vertex="1" parent="1">
          <mxGeometry x="-600" y="20" width="100" height="40" as="geometry" />
        </mxCell>
        <mxCell id="LdDLsfg2pG7cTwmOzENp-6" value="&lt;pre style=&quot;user-select: text; font-family: &amp;quot;Courier New&amp;quot;, Courier, monospace, arial, sans-serif; margin-top: 0px; margin-bottom: 0px; text-wrap-mode: wrap; overflow-wrap: break-word; background-color: rgb(255, 255, 255); font-size: 14px; text-align: left;&quot; class=&quot;ndfHFb-c4YZDc-fmcmS-DARUcf&quot;&gt;role&lt;/pre&gt;" style="ellipse;whiteSpace=wrap;html=1;align=center;" vertex="1" parent="1">
          <mxGeometry x="-490" y="20" width="100" height="40" as="geometry" />
        </mxCell>
        <mxCell id="LdDLsfg2pG7cTwmOzENp-7" value="&lt;pre style=&quot;user-select: text; font-family: &amp;quot;Courier New&amp;quot;, Courier, monospace, arial, sans-serif; margin-top: 0px; margin-bottom: 0px; text-wrap-mode: wrap; overflow-wrap: break-word; background-color: rgb(255, 255, 255); font-size: 14px; text-align: left;&quot; class=&quot;ndfHFb-c4YZDc-fmcmS-DARUcf&quot;&gt;image&lt;/pre&gt;" style="ellipse;whiteSpace=wrap;html=1;align=center;" vertex="1" parent="1">
          <mxGeometry x="-380" y="20" width="100" height="40" as="geometry" />
        </mxCell>
        <mxCell id="LdDLsfg2pG7cTwmOzENp-8" value="&lt;pre style=&quot;user-select: text; font-family: &amp;quot;Courier New&amp;quot;, Courier, monospace, arial, sans-serif; margin-top: 0px; margin-bottom: 0px; text-wrap-mode: wrap; overflow-wrap: break-word; background-color: rgb(255, 255, 255); font-size: 14px; text-align: left;&quot; class=&quot;ndfHFb-c4YZDc-fmcmS-DARUcf&quot;&gt;address&lt;/pre&gt;" style="ellipse;whiteSpace=wrap;html=1;align=center;" vertex="1" parent="1">
          <mxGeometry x="-270" y="20" width="100" height="40" as="geometry" />
        </mxCell>
        <mxCell id="LdDLsfg2pG7cTwmOzENp-9" value="&lt;pre style=&quot;user-select: text; font-family: &amp;quot;Courier New&amp;quot;, Courier, monospace, arial, sans-serif; margin-top: 0px; margin-bottom: 0px; text-wrap-mode: wrap; overflow-wrap: break-word; background-color: rgb(255, 255, 255); font-size: 14px; text-align: left;&quot; class=&quot;ndfHFb-c4YZDc-fmcmS-DARUcf&quot;&gt;phone&lt;/pre&gt;" style="ellipse;whiteSpace=wrap;html=1;align=center;" vertex="1" parent="1">
          <mxGeometry x="-230" y="70" width="100" height="40" as="geometry" />
        </mxCell>
        <mxCell id="LdDLsfg2pG7cTwmOzENp-10" value="&lt;pre style=&quot;user-select: text; font-family: &amp;quot;Courier New&amp;quot;, Courier, monospace, arial, sans-serif; margin-top: 0px; margin-bottom: 0px; text-wrap-mode: wrap; overflow-wrap: break-word; background-color: rgb(255, 255, 255); font-size: 14px; text-align: left;&quot; class=&quot;ndfHFb-c4YZDc-fmcmS-DARUcf&quot;&gt;verifiedAt&lt;/pre&gt;" style="ellipse;whiteSpace=wrap;html=1;align=center;" vertex="1" parent="1">
          <mxGeometry x="-830" y="130" width="100" height="40" as="geometry" />
        </mxCell>
        <mxCell id="LdDLsfg2pG7cTwmOzENp-15" value="_id" style="ellipse;whiteSpace=wrap;html=1;align=center;fontStyle=4;" vertex="1" parent="1">
          <mxGeometry x="375" y="10" width="100" height="40" as="geometry" />
        </mxCell>
        <mxCell id="LdDLsfg2pG7cTwmOzENp-20" value="&lt;pre style=&quot;user-select: text; font-family: &amp;quot;Courier New&amp;quot;, Courier, monospace, arial, sans-serif; margin-top: 0px; margin-bottom: 0px; text-wrap-mode: wrap; overflow-wrap: break-word; background-color: rgb(255, 255, 255); font-size: 14px; text-align: left;&quot; class=&quot;ndfHFb-c4YZDc-fmcmS-DARUcf&quot;&gt;deletedAt&lt;/pre&gt;" style="ellipse;whiteSpace=wrap;html=1;align=center;" vertex="1" parent="1">
          <mxGeometry x="750" y="320" width="100" height="40" as="geometry" />
        </mxCell>
        <mxCell id="LdDLsfg2pG7cTwmOzENp-21" value="&lt;pre style=&quot;user-select: text; font-family: &amp;quot;Courier New&amp;quot;, Courier, monospace, arial, sans-serif; margin-top: 0px; margin-bottom: 0px; text-wrap-mode: wrap; overflow-wrap: break-word; background-color: rgb(255, 255, 255); font-size: 14px; text-align: left;&quot; class=&quot;ndfHFb-c4YZDc-fmcmS-DARUcf&quot;&gt;image&lt;/pre&gt;" style="ellipse;whiteSpace=wrap;html=1;align=center;" vertex="1" parent="1">
          <mxGeometry x="750" y="110" width="100" height="40" as="geometry" />
        </mxCell>
        <mxCell id="LdDLsfg2pG7cTwmOzENp-22" value="&lt;pre style=&quot;user-select: text; font-family: &amp;quot;Courier New&amp;quot;, Courier, monospace, arial, sans-serif; margin-top: 0px; margin-bottom: 0px; text-wrap-mode: wrap; overflow-wrap: break-word; background-color: rgb(255, 255, 255); font-size: 14px; text-align: left;&quot; class=&quot;ndfHFb-c4YZDc-fmcmS-DARUcf&quot;&gt;stock&lt;/pre&gt;" style="ellipse;whiteSpace=wrap;html=1;align=center;" vertex="1" parent="1">
          <mxGeometry x="700" y="10" width="100" height="40" as="geometry" />
        </mxCell>
        <mxCell id="LdDLsfg2pG7cTwmOzENp-23" value="&lt;pre style=&quot;user-select: text; font-family: &amp;quot;Courier New&amp;quot;, Courier, monospace, arial, sans-serif; margin-top: 0px; margin-bottom: 0px; text-wrap-mode: wrap; overflow-wrap: break-word; background-color: rgb(255, 255, 255); font-size: 14px; text-align: left;&quot; class=&quot;ndfHFb-c4YZDc-fmcmS-DARUcf&quot;&gt;description&lt;/pre&gt;" style="ellipse;whiteSpace=wrap;html=1;align=center;" vertex="1" parent="1">
          <mxGeometry x="590" y="10" width="100" height="40" as="geometry" />
        </mxCell>
        <mxCell id="LdDLsfg2pG7cTwmOzENp-24" value="&lt;pre style=&quot;user-select: text; font-family: &amp;quot;Courier New&amp;quot;, Courier, monospace, arial, sans-serif; margin-top: 0px; margin-bottom: 0px; text-wrap-mode: wrap; overflow-wrap: break-word; background-color: rgb(255, 255, 255); font-size: 14px; text-align: left;&quot; class=&quot;ndfHFb-c4YZDc-fmcmS-DARUcf&quot;&gt;price&lt;/pre&gt;" style="ellipse;whiteSpace=wrap;html=1;align=center;" vertex="1" parent="1">
          <mxGeometry x="750" y="60" width="100" height="40" as="geometry" />
        </mxCell>
        <mxCell id="LdDLsfg2pG7cTwmOzENp-26" value="&lt;pre style=&quot;user-select: text; font-family: &amp;quot;Courier New&amp;quot;, Courier, monospace, arial, sans-serif; margin-top: 0px; margin-bottom: 0px; text-wrap-mode: wrap; overflow-wrap: break-word; background-color: rgb(255, 255, 255); font-size: 14px; text-align: left;&quot; class=&quot;ndfHFb-c4YZDc-fmcmS-DARUcf&quot;&gt;createdAt&lt;/pre&gt;" style="ellipse;whiteSpace=wrap;html=1;align=center;" vertex="1" parent="1">
          <mxGeometry x="-830" y="180" width="100" height="40" as="geometry" />
        </mxCell>
        <mxCell id="LdDLsfg2pG7cTwmOzENp-27" value="&lt;pre style=&quot;user-select: text; font-family: &amp;quot;Courier New&amp;quot;, Courier, monospace, arial, sans-serif; margin-top: 0px; margin-bottom: 0px; text-wrap-mode: wrap; overflow-wrap: break-word; background-color: rgb(255, 255, 255); font-size: 14px; text-align: left;&quot; class=&quot;ndfHFb-c4YZDc-fmcmS-DARUcf&quot;&gt;createdAt&lt;/pre&gt;" style="ellipse;whiteSpace=wrap;html=1;align=center;" vertex="1" parent="1">
          <mxGeometry x="750" y="210" width="100" height="40" as="geometry" />
        </mxCell>
        <mxCell id="LdDLsfg2pG7cTwmOzENp-29" value="&lt;pre style=&quot;user-select: text; font-family: &amp;quot;Courier New&amp;quot;, Courier, monospace, arial, sans-serif; margin-top: 0px; margin-bottom: 0px; text-wrap-mode: wrap; overflow-wrap: break-word; background-color: rgb(255, 255, 255); font-size: 14px; text-align: left;&quot; class=&quot;ndfHFb-c4YZDc-fmcmS-DARUcf&quot;&gt;title&lt;/pre&gt;" style="ellipse;whiteSpace=wrap;html=1;align=center;" vertex="1" parent="1">
          <mxGeometry x="480" y="10" width="100" height="40" as="geometry" />
        </mxCell>
        <mxCell id="LdDLsfg2pG7cTwmOzENp-31" value="&lt;pre style=&quot;user-select: text; font-family: &amp;quot;Courier New&amp;quot;, Courier, monospace, arial, sans-serif; margin-top: 0px; margin-bottom: 0px; text-wrap-mode: wrap; overflow-wrap: break-word; background-color: rgb(255, 255, 255); font-size: 14px; text-align: left;&quot; class=&quot;ndfHFb-c4YZDc-fmcmS-DARUcf&quot;&gt;&lt;pre style=&quot;user-select: text; font-family: &amp;quot;Courier New&amp;quot;, Courier, monospace, arial, sans-serif; margin-top: 0px; margin-bottom: 0px; text-wrap-mode: wrap; overflow-wrap: break-word; background-color: rgb(255, 255, 255);&quot; class=&quot;ndfHFb-c4YZDc-fmcmS-DARUcf&quot;&gt;authors&lt;/pre&gt;&lt;/pre&gt;" style="ellipse;whiteSpace=wrap;html=1;align=center;" vertex="1" parent="1">
          <mxGeometry x="750" y="160" width="100" height="40" as="geometry" />
        </mxCell>
        <mxCell id="LdDLsfg2pG7cTwmOzENp-37" value="&lt;pre style=&quot;user-select: text; font-family: &amp;quot;Courier New&amp;quot;, Courier, monospace, arial, sans-serif; margin-top: 0px; margin-bottom: 0px; text-wrap-mode: wrap; overflow-wrap: break-word; background-color: rgb(255, 255, 255); font-size: 14px; text-align: left;&quot; class=&quot;ndfHFb-c4YZDc-fmcmS-DARUcf&quot;&gt;rating&lt;/pre&gt;" style="ellipse;whiteSpace=wrap;html=1;align=center;" vertex="1" parent="1">
          <mxGeometry x="-10" y="14.999999999999996" width="100" height="40" as="geometry" />
        </mxCell>
        <mxCell id="LdDLsfg2pG7cTwmOzENp-38" value="&lt;pre style=&quot;user-select: text; font-family: &amp;quot;Courier New&amp;quot;, Courier, monospace, arial, sans-serif; margin-top: 0px; margin-bottom: 0px; text-wrap-mode: wrap; overflow-wrap: break-word; background-color: rgb(255, 255, 255); font-size: 14px; text-align: left;&quot; class=&quot;ndfHFb-c4YZDc-fmcmS-DARUcf&quot;&gt;&lt;span style=&quot;font-family: Helvetica; font-size: 12px; text-align: center; white-space-collapse: collapse; background-color: rgb(251, 251, 251);&quot;&gt;review&lt;/span&gt;&lt;/pre&gt;" style="ellipse;whiteSpace=wrap;html=1;align=center;" vertex="1" parent="1">
          <mxGeometry x="100" y="4.9999999999999964" width="100" height="40" as="geometry" />
        </mxCell>
        <mxCell id="LdDLsfg2pG7cTwmOzENp-40" value="" style="endArrow=none;html=1;rounded=0;exitX=1;exitY=1;exitDx=0;exitDy=0;entryX=0.25;entryY=0;entryDx=0;entryDy=0;" edge="1" parent="1" source="LdDLsfg2pG7cTwmOzENp-37" target="_jiPs9pSwT7T86VHgQq--22">
          <mxGeometry relative="1" as="geometry">
            <mxPoint x="400" y="4.909999999999997" as="sourcePoint" />
            <mxPoint x="230" y="159.91" as="targetPoint" />
          </mxGeometry>
        </mxCell>
        <mxCell id="LdDLsfg2pG7cTwmOzENp-41" value="" style="endArrow=none;html=1;rounded=0;exitX=0.5;exitY=1;exitDx=0;exitDy=0;entryX=0.5;entryY=0;entryDx=0;entryDy=0;" edge="1" parent="1" source="LdDLsfg2pG7cTwmOzENp-38" target="_jiPs9pSwT7T86VHgQq--22">
          <mxGeometry relative="1" as="geometry">
            <mxPoint x="220" y="4.909999999999997" as="sourcePoint" />
            <mxPoint x="260" y="144.91" as="targetPoint" />
          </mxGeometry>
        </mxCell>
        <mxCell id="LdDLsfg2pG7cTwmOzENp-42" value="&lt;pre style=&quot;user-select: text; font-family: &amp;quot;Courier New&amp;quot;, Courier, monospace, arial, sans-serif; margin-top: 0px; margin-bottom: 0px; text-wrap-mode: wrap; overflow-wrap: break-word; background-color: rgb(255, 255, 255); font-size: 14px; text-align: left;&quot; class=&quot;ndfHFb-c4YZDc-fmcmS-DARUcf&quot;&gt;createdAt&lt;/pre&gt;" style="ellipse;whiteSpace=wrap;html=1;align=center;" vertex="1" parent="1">
          <mxGeometry x="210" y="24.999999999999996" width="100" height="40" as="geometry" />
        </mxCell>
        <mxCell id="LdDLsfg2pG7cTwmOzENp-43" value="" style="endArrow=none;html=1;rounded=0;exitX=0.5;exitY=1;exitDx=0;exitDy=0;entryX=0.75;entryY=0;entryDx=0;entryDy=0;" edge="1" parent="1" source="LdDLsfg2pG7cTwmOzENp-42" target="_jiPs9pSwT7T86VHgQq--22">
          <mxGeometry relative="1" as="geometry">
            <mxPoint x="300" y="-15.090000000000003" as="sourcePoint" />
            <mxPoint x="260" y="144.91" as="targetPoint" />
          </mxGeometry>
        </mxCell>
        <mxCell id="LdDLsfg2pG7cTwmOzENp-44" value="" style="endArrow=none;html=1;rounded=0;exitX=1;exitY=1;exitDx=0;exitDy=0;entryX=0;entryY=0.25;entryDx=0;entryDy=0;" edge="1" parent="1" source="LdDLsfg2pG7cTwmOzENp-15" target="LdDLsfg2pG7cTwmOzENp-2">
          <mxGeometry relative="1" as="geometry">
            <mxPoint x="450" y="170" as="sourcePoint" />
            <mxPoint x="360" y="265" as="targetPoint" />
          </mxGeometry>
        </mxCell>
        <mxCell id="LdDLsfg2pG7cTwmOzENp-45" value="" style="endArrow=none;html=1;rounded=0;exitX=0.5;exitY=1;exitDx=0;exitDy=0;entryX=0;entryY=0;entryDx=0;entryDy=0;" edge="1" parent="1" source="LdDLsfg2pG7cTwmOzENp-29" target="LdDLsfg2pG7cTwmOzENp-2">
          <mxGeometry relative="1" as="geometry">
            <mxPoint x="470" y="54" as="sourcePoint" />
            <mxPoint x="580" y="140" as="targetPoint" />
          </mxGeometry>
        </mxCell>
        <mxCell id="LdDLsfg2pG7cTwmOzENp-46" value="" style="endArrow=none;html=1;rounded=0;exitX=0;exitY=1;exitDx=0;exitDy=0;entryX=0.25;entryY=0;entryDx=0;entryDy=0;" edge="1" parent="1" source="LdDLsfg2pG7cTwmOzENp-23" target="LdDLsfg2pG7cTwmOzENp-2">
          <mxGeometry relative="1" as="geometry">
            <mxPoint x="540" y="60" as="sourcePoint" />
            <mxPoint x="580" y="140" as="targetPoint" />
          </mxGeometry>
        </mxCell>
        <mxCell id="LdDLsfg2pG7cTwmOzENp-47" value="" style="endArrow=none;html=1;rounded=0;exitX=0;exitY=1;exitDx=0;exitDy=0;entryX=0.5;entryY=0;entryDx=0;entryDy=0;" edge="1" parent="1" source="LdDLsfg2pG7cTwmOzENp-22" target="LdDLsfg2pG7cTwmOzENp-2">
          <mxGeometry relative="1" as="geometry">
            <mxPoint x="615" y="54" as="sourcePoint" />
            <mxPoint x="605" y="140" as="targetPoint" />
          </mxGeometry>
        </mxCell>
        <mxCell id="LdDLsfg2pG7cTwmOzENp-48" value="" style="endArrow=none;html=1;rounded=0;exitX=0;exitY=0.5;exitDx=0;exitDy=0;entryX=0.75;entryY=0;entryDx=0;entryDy=0;" edge="1" parent="1" source="LdDLsfg2pG7cTwmOzENp-24" target="LdDLsfg2pG7cTwmOzENp-2">
          <mxGeometry relative="1" as="geometry">
            <mxPoint x="725" y="54" as="sourcePoint" />
            <mxPoint x="640" y="150" as="targetPoint" />
          </mxGeometry>
        </mxCell>
        <mxCell id="LdDLsfg2pG7cTwmOzENp-49" value="" style="endArrow=none;html=1;rounded=0;exitX=0;exitY=0.5;exitDx=0;exitDy=0;entryX=1;entryY=0;entryDx=0;entryDy=0;" edge="1" parent="1" source="LdDLsfg2pG7cTwmOzENp-21" target="LdDLsfg2pG7cTwmOzENp-2">
          <mxGeometry relative="1" as="geometry">
            <mxPoint x="760" y="90" as="sourcePoint" />
            <mxPoint x="665" y="150" as="targetPoint" />
          </mxGeometry>
        </mxCell>
        <mxCell id="LdDLsfg2pG7cTwmOzENp-50" value="" style="endArrow=none;html=1;rounded=0;exitX=0;exitY=0.5;exitDx=0;exitDy=0;entryX=1;entryY=0.5;entryDx=0;entryDy=0;" edge="1" parent="1" source="LdDLsfg2pG7cTwmOzENp-31" target="LdDLsfg2pG7cTwmOzENp-2">
          <mxGeometry relative="1" as="geometry">
            <mxPoint x="760" y="140" as="sourcePoint" />
            <mxPoint x="690" y="150" as="targetPoint" />
          </mxGeometry>
        </mxCell>
        <mxCell id="LdDLsfg2pG7cTwmOzENp-51" value="" style="endArrow=none;html=1;rounded=0;exitX=0;exitY=0.5;exitDx=0;exitDy=0;entryX=1;entryY=1;entryDx=0;entryDy=0;" edge="1" parent="1" source="LdDLsfg2pG7cTwmOzENp-27" target="LdDLsfg2pG7cTwmOzENp-2">
          <mxGeometry relative="1" as="geometry">
            <mxPoint x="760" y="190" as="sourcePoint" />
            <mxPoint x="690" y="170" as="targetPoint" />
          </mxGeometry>
        </mxCell>
        <mxCell id="LdDLsfg2pG7cTwmOzENp-52" value="" style="endArrow=none;html=1;rounded=0;exitX=0;exitY=0;exitDx=0;exitDy=0;entryX=0.75;entryY=1;entryDx=0;entryDy=0;" edge="1" parent="1" source="LdDLsfg2pG7cTwmOzENp-20" target="LdDLsfg2pG7cTwmOzENp-2">
          <mxGeometry relative="1" as="geometry">
            <mxPoint x="770" y="200" as="sourcePoint" />
            <mxPoint x="700" y="180" as="targetPoint" />
          </mxGeometry>
        </mxCell>
        <mxCell id="LdDLsfg2pG7cTwmOzENp-53" value="" style="endArrow=none;html=1;rounded=0;exitX=1;exitY=0;exitDx=0;exitDy=0;entryX=0;entryY=1;entryDx=0;entryDy=0;" edge="1" parent="1" source="xOjnY0KziKzDUrAcWFAt-1" target="LdDLsfg2pG7cTwmOzENp-9">
          <mxGeometry relative="1" as="geometry">
            <mxPoint x="660" y="210" as="sourcePoint" />
            <mxPoint x="590" y="190" as="targetPoint" />
          </mxGeometry>
        </mxCell>
        <mxCell id="LdDLsfg2pG7cTwmOzENp-54" value="" style="endArrow=none;html=1;rounded=0;exitX=1;exitY=0;exitDx=0;exitDy=0;entryX=0.5;entryY=1;entryDx=0;entryDy=0;" edge="1" parent="1" source="xOjnY0KziKzDUrAcWFAt-1" target="LdDLsfg2pG7cTwmOzENp-8">
          <mxGeometry relative="1" as="geometry">
            <mxPoint y="170" as="sourcePoint" />
            <mxPoint x="70" y="100" as="targetPoint" />
          </mxGeometry>
        </mxCell>
        <mxCell id="LdDLsfg2pG7cTwmOzENp-55" value="" style="endArrow=none;html=1;rounded=0;exitX=0.75;exitY=0;exitDx=0;exitDy=0;entryX=0;entryY=1;entryDx=0;entryDy=0;" edge="1" parent="1" source="xOjnY0KziKzDUrAcWFAt-1" target="LdDLsfg2pG7cTwmOzENp-7">
          <mxGeometry relative="1" as="geometry">
            <mxPoint x="-350" y="200" as="sourcePoint" />
            <mxPoint x="-330" y="60" as="targetPoint" />
          </mxGeometry>
        </mxCell>
        <mxCell id="LdDLsfg2pG7cTwmOzENp-56" value="" style="endArrow=none;html=1;rounded=0;exitX=0.75;exitY=0;exitDx=0;exitDy=0;entryX=1;entryY=1;entryDx=0;entryDy=0;" edge="1" parent="1" source="xOjnY0KziKzDUrAcWFAt-1" target="LdDLsfg2pG7cTwmOzENp-6">
          <mxGeometry relative="1" as="geometry">
            <mxPoint x="-340" y="210" as="sourcePoint" />
            <mxPoint x="-270" y="140" as="targetPoint" />
          </mxGeometry>
        </mxCell>
        <mxCell id="LdDLsfg2pG7cTwmOzENp-57" value="" style="endArrow=none;html=1;rounded=0;exitX=0.5;exitY=0;exitDx=0;exitDy=0;entryX=1;entryY=0.5;entryDx=0;entryDy=0;" edge="1" parent="1" source="xOjnY0KziKzDUrAcWFAt-1" target="LdDLsfg2pG7cTwmOzENp-5">
          <mxGeometry relative="1" as="geometry">
            <mxPoint x="-330" y="220" as="sourcePoint" />
            <mxPoint x="-260" y="150" as="targetPoint" />
          </mxGeometry>
        </mxCell>
        <mxCell id="LdDLsfg2pG7cTwmOzENp-58" value="" style="endArrow=none;html=1;rounded=0;exitX=0.25;exitY=0;exitDx=0;exitDy=0;entryX=1;entryY=0.5;entryDx=0;entryDy=0;" edge="1" parent="1" source="xOjnY0KziKzDUrAcWFAt-1" target="xOjnY0KziKzDUrAcWFAt-3">
          <mxGeometry relative="1" as="geometry">
            <mxPoint x="-320" y="230" as="sourcePoint" />
            <mxPoint x="-250" y="160" as="targetPoint" />
          </mxGeometry>
        </mxCell>
        <mxCell id="LdDLsfg2pG7cTwmOzENp-59" value="" style="endArrow=none;html=1;rounded=0;exitX=1;exitY=1;exitDx=0;exitDy=0;entryX=0;entryY=0;entryDx=0;entryDy=0;" edge="1" parent="1" source="xOjnY0KziKzDUrAcWFAt-2" target="xOjnY0KziKzDUrAcWFAt-1">
          <mxGeometry relative="1" as="geometry">
            <mxPoint x="-310" y="240" as="sourcePoint" />
            <mxPoint x="-240" y="170" as="targetPoint" />
          </mxGeometry>
        </mxCell>
        <mxCell id="LdDLsfg2pG7cTwmOzENp-60" value="" style="endArrow=none;html=1;rounded=0;exitX=1;exitY=0.5;exitDx=0;exitDy=0;entryX=0;entryY=0.25;entryDx=0;entryDy=0;" edge="1" parent="1" source="LdDLsfg2pG7cTwmOzENp-4" target="xOjnY0KziKzDUrAcWFAt-1">
          <mxGeometry relative="1" as="geometry">
            <mxPoint x="-300" y="250" as="sourcePoint" />
            <mxPoint x="-230" y="180" as="targetPoint" />
          </mxGeometry>
        </mxCell>
        <mxCell id="LdDLsfg2pG7cTwmOzENp-61" value="" style="endArrow=none;html=1;rounded=0;exitX=1;exitY=0.5;exitDx=0;exitDy=0;entryX=0;entryY=0.5;entryDx=0;entryDy=0;" edge="1" parent="1" source="LdDLsfg2pG7cTwmOzENp-10" target="xOjnY0KziKzDUrAcWFAt-1">
          <mxGeometry relative="1" as="geometry">
            <mxPoint x="-290" y="260" as="sourcePoint" />
            <mxPoint x="-220" y="190" as="targetPoint" />
          </mxGeometry>
        </mxCell>
        <mxCell id="LdDLsfg2pG7cTwmOzENp-62" value="" style="endArrow=none;html=1;rounded=0;exitX=1;exitY=0.5;exitDx=0;exitDy=0;entryX=0;entryY=0.5;entryDx=0;entryDy=0;" edge="1" parent="1" source="LdDLsfg2pG7cTwmOzENp-26" target="xOjnY0KziKzDUrAcWFAt-1">
          <mxGeometry relative="1" as="geometry">
            <mxPoint x="-280" y="270" as="sourcePoint" />
            <mxPoint x="-210" y="200" as="targetPoint" />
          </mxGeometry>
        </mxCell>
        <mxCell id="LdDLsfg2pG7cTwmOzENp-63" value="&lt;pre style=&quot;user-select: text; font-family: &amp;quot;Courier New&amp;quot;, Courier, monospace, arial, sans-serif; margin-top: 0px; margin-bottom: 0px; text-wrap-mode: wrap; overflow-wrap: break-word; background-color: rgb(255, 255, 255); font-size: 14px; text-align: left;&quot; class=&quot;ndfHFb-c4YZDc-fmcmS-DARUcf&quot;&gt;Orders&lt;/pre&gt;" style="rounded=1;arcSize=10;whiteSpace=wrap;html=1;align=center;" vertex="1" parent="1">
          <mxGeometry x="-140" y="510" width="100" height="40" as="geometry" />
        </mxCell>
        <mxCell id="LdDLsfg2pG7cTwmOzENp-64" value="_id" style="ellipse;whiteSpace=wrap;html=1;align=center;fontStyle=4;" vertex="1" parent="1">
          <mxGeometry x="-320" y="630" width="100" height="40" as="geometry" />
        </mxCell>
        <mxCell id="LdDLsfg2pG7cTwmOzENp-65" value="&lt;pre style=&quot;user-select: text; font-family: &amp;quot;Courier New&amp;quot;, Courier, monospace, arial, sans-serif; margin-top: 0px; margin-bottom: 0px; text-wrap-mode: wrap; overflow-wrap: break-word; background-color: rgb(255, 255, 255); font-size: 14px; text-align: left;&quot; class=&quot;ndfHFb-c4YZDc-fmcmS-DARUcf&quot;&gt;createdAt&lt;/pre&gt;" style="ellipse;whiteSpace=wrap;html=1;align=center;" vertex="1" parent="1">
          <mxGeometry x="-80" y="720" width="100" height="40" as="geometry" />
        </mxCell>
        <mxCell id="LdDLsfg2pG7cTwmOzENp-66" value="&lt;pre style=&quot;user-select: text; font-family: &amp;quot;Courier New&amp;quot;, Courier, monospace, arial, sans-serif; margin-top: 0px; margin-bottom: 0px; text-wrap-mode: wrap; overflow-wrap: break-word; background-color: rgb(255, 255, 255); font-size: 14px; text-align: left;&quot; class=&quot;ndfHFb-c4YZDc-fmcmS-DARUcf&quot;&gt;status&lt;/pre&gt;" style="ellipse;whiteSpace=wrap;html=1;align=center;" vertex="1" parent="1">
          <mxGeometry x="-260" y="670" width="100" height="40" as="geometry" />
        </mxCell>
        <mxCell id="LdDLsfg2pG7cTwmOzENp-67" value="&lt;pre style=&quot;user-select: text; font-family: &amp;quot;Courier New&amp;quot;, Courier, monospace, arial, sans-serif; margin-top: 0px; margin-bottom: 0px; text-wrap-mode: wrap; overflow-wrap: break-word; background-color: rgb(255, 255, 255); font-size: 14px; text-align: left;&quot; class=&quot;ndfHFb-c4YZDc-fmcmS-DARUcf&quot;&gt;session&lt;/pre&gt;" style="ellipse;whiteSpace=wrap;html=1;align=center;" vertex="1" parent="1">
          <mxGeometry x="-180" y="710" width="100" height="40" as="geometry" />
        </mxCell>
        <mxCell id="LdDLsfg2pG7cTwmOzENp-69" value="totalPrice" style="ellipse;whiteSpace=wrap;html=1;align=center;dashed=1;" vertex="1" parent="1">
          <mxGeometry x="100" y="670" width="100" height="40" as="geometry" />
        </mxCell>
        <mxCell id="LdDLsfg2pG7cTwmOzENp-70" value="totaI-Items" style="ellipse;whiteSpace=wrap;html=1;align=center;dashed=1;" vertex="1" parent="1">
          <mxGeometry x="140" y="610" width="100" height="40" as="geometry" />
        </mxCell>
        <mxCell id="LdDLsfg2pG7cTwmOzENp-74" value="" style="endArrow=none;html=1;rounded=0;exitX=0.5;exitY=1;exitDx=0;exitDy=0;entryX=0;entryY=0;entryDx=0;entryDy=0;" edge="1" parent="1" source="xOjnY0KziKzDUrAcWFAt-1" target="LdDLsfg2pG7cTwmOzENp-80">
          <mxGeometry relative="1" as="geometry">
            <mxPoint x="230" y="370" as="sourcePoint" />
            <mxPoint x="120" y="400" as="targetPoint" />
          </mxGeometry>
        </mxCell>
        <mxCell id="LdDLsfg2pG7cTwmOzENp-75" value="1" style="resizable=0;html=1;whiteSpace=wrap;align=right;verticalAlign=bottom;" connectable="0" vertex="1" parent="LdDLsfg2pG7cTwmOzENp-74">
          <mxGeometry x="1" relative="1" as="geometry">
            <mxPoint x="-21" as="offset" />
          </mxGeometry>
        </mxCell>
        <mxCell id="LdDLsfg2pG7cTwmOzENp-78" value="" style="shape=link;html=1;rounded=0;exitX=0;exitY=0;exitDx=0;exitDy=0;entryX=1;entryY=1;entryDx=0;entryDy=0;" edge="1" parent="1" source="LdDLsfg2pG7cTwmOzENp-63" target="LdDLsfg2pG7cTwmOzENp-80">
          <mxGeometry relative="1" as="geometry">
            <mxPoint x="-112.5" y="529.23" as="sourcePoint" />
            <mxPoint x="-307.5" y="529.23" as="targetPoint" />
          </mxGeometry>
        </mxCell>
        <mxCell id="LdDLsfg2pG7cTwmOzENp-79" value="N" style="resizable=0;html=1;whiteSpace=wrap;align=right;verticalAlign=bottom;" connectable="0" vertex="1" parent="LdDLsfg2pG7cTwmOzENp-78">
          <mxGeometry x="1" relative="1" as="geometry">
            <mxPoint x="-1" y="25" as="offset" />
          </mxGeometry>
        </mxCell>
        <mxCell id="LdDLsfg2pG7cTwmOzENp-80" value="has" style="shape=rhombus;double=1;perimeter=rhombusPerimeter;whiteSpace=wrap;html=1;align=center;" vertex="1" parent="1">
          <mxGeometry x="-340" y="370" width="120" height="60" as="geometry" />
        </mxCell>
        <mxCell id="LdDLsfg2pG7cTwmOzENp-82" value="has" style="shape=rhombus;double=1;perimeter=rhombusPerimeter;whiteSpace=wrap;html=1;align=center;" vertex="1" parent="1">
          <mxGeometry x="420" y="370" width="120" height="60" as="geometry" />
        </mxCell>
        <mxCell id="LdDLsfg2pG7cTwmOzENp-87" value="" style="endArrow=none;html=1;rounded=0;exitX=1;exitY=0;exitDx=0;exitDy=0;entryX=0;entryY=1;entryDx=0;entryDy=0;" edge="1" parent="1" source="LdDLsfg2pG7cTwmOzENp-64" target="LdDLsfg2pG7cTwmOzENp-63">
          <mxGeometry relative="1" as="geometry">
            <mxPoint x="-150" y="300" as="sourcePoint" />
            <mxPoint x="-75" y="160" as="targetPoint" />
          </mxGeometry>
        </mxCell>
        <mxCell id="LdDLsfg2pG7cTwmOzENp-88" value="" style="endArrow=none;html=1;rounded=0;exitX=0.5;exitY=0;exitDx=0;exitDy=0;entryX=0.75;entryY=1;entryDx=0;entryDy=0;" edge="1" parent="1" source="LdDLsfg2pG7cTwmOzENp-65" target="LdDLsfg2pG7cTwmOzENp-63">
          <mxGeometry relative="1" as="geometry">
            <mxPoint x="-160" y="430" as="sourcePoint" />
            <mxPoint x="-90" y="560" as="targetPoint" />
          </mxGeometry>
        </mxCell>
        <mxCell id="LdDLsfg2pG7cTwmOzENp-89" value="" style="endArrow=none;html=1;rounded=0;exitX=1;exitY=0;exitDx=0;exitDy=0;entryX=0.25;entryY=1;entryDx=0;entryDy=0;" edge="1" parent="1" source="LdDLsfg2pG7cTwmOzENp-66" target="LdDLsfg2pG7cTwmOzENp-63">
          <mxGeometry relative="1" as="geometry">
            <mxPoint x="-150" y="440" as="sourcePoint" />
            <mxPoint x="50" y="540" as="targetPoint" />
          </mxGeometry>
        </mxCell>
        <mxCell id="LdDLsfg2pG7cTwmOzENp-90" value="" style="endArrow=none;html=1;rounded=0;exitX=0.5;exitY=0;exitDx=0;exitDy=0;entryX=0.5;entryY=1;entryDx=0;entryDy=0;" edge="1" parent="1" source="LdDLsfg2pG7cTwmOzENp-67" target="LdDLsfg2pG7cTwmOzENp-63">
          <mxGeometry relative="1" as="geometry">
            <mxPoint x="-140" y="450" as="sourcePoint" />
            <mxPoint x="60" y="550" as="targetPoint" />
          </mxGeometry>
        </mxCell>
        <mxCell id="LdDLsfg2pG7cTwmOzENp-91" value="" style="endArrow=none;html=1;rounded=0;exitX=0.5;exitY=0;exitDx=0;exitDy=0;entryX=1;entryY=1;entryDx=0;entryDy=0;" edge="1" parent="1" source="LdDLsfg2pG7cTwmOzENp-69" target="LdDLsfg2pG7cTwmOzENp-63">
          <mxGeometry relative="1" as="geometry">
            <mxPoint x="-160" y="620" as="sourcePoint" />
            <mxPoint x="40" y="550" as="targetPoint" />
          </mxGeometry>
        </mxCell>
        <mxCell id="LdDLsfg2pG7cTwmOzENp-92" value="" style="endArrow=none;html=1;rounded=0;exitX=0.5;exitY=0;exitDx=0;exitDy=0;entryX=1;entryY=0.5;entryDx=0;entryDy=0;" edge="1" parent="1" source="LdDLsfg2pG7cTwmOzENp-70" target="LdDLsfg2pG7cTwmOzENp-63">
          <mxGeometry relative="1" as="geometry">
            <mxPoint x="-80" y="650" as="sourcePoint" />
            <mxPoint x="40" y="570" as="targetPoint" />
          </mxGeometry>
        </mxCell>
        <mxCell id="LdDLsfg2pG7cTwmOzENp-94" value="&lt;pre style=&quot;user-select: text; font-family: &amp;quot;Courier New&amp;quot;, Courier, monospace, arial, sans-serif; margin-top: 0px; margin-bottom: 0px; text-wrap-mode: wrap; overflow-wrap: break-word; background-color: rgb(255, 255, 255); font-size: 14px; text-align: left;&quot; class=&quot;ndfHFb-c4YZDc-fmcmS-DARUcf&quot;&gt;Carts&lt;/pre&gt;" style="rounded=1;arcSize=10;whiteSpace=wrap;html=1;align=center;" vertex="1" parent="1">
          <mxGeometry x="640" y="600" width="100" height="40" as="geometry" />
        </mxCell>
        <mxCell id="LdDLsfg2pG7cTwmOzENp-95" value="&lt;pre style=&quot;user-select: text; font-family: &amp;quot;Courier New&amp;quot;, Courier, monospace, arial, sans-serif; margin-top: 0px; margin-bottom: 0px; text-wrap-mode: wrap; overflow-wrap: break-word; background-color: rgb(255, 255, 255); font-size: 14px; text-align: left;&quot; class=&quot;ndfHFb-c4YZDc-fmcmS-DARUcf&quot;&gt;createdAt&lt;/pre&gt;" style="ellipse;whiteSpace=wrap;html=1;align=center;" vertex="1" parent="1">
          <mxGeometry x="610" y="720" width="100" height="40" as="geometry" />
        </mxCell>
        <mxCell id="LdDLsfg2pG7cTwmOzENp-96" value="_id" style="ellipse;whiteSpace=wrap;html=1;align=center;fontStyle=4;" vertex="1" parent="1">
          <mxGeometry x="500" y="720" width="100" height="40" as="geometry" />
        </mxCell>
        <mxCell id="LdDLsfg2pG7cTwmOzENp-97" value="own" style="shape=rhombus;double=1;perimeter=rhombusPerimeter;whiteSpace=wrap;html=1;align=center;" vertex="1" parent="1">
          <mxGeometry x="100" y="360" width="120" height="60" as="geometry" />
        </mxCell>
        <mxCell id="LdDLsfg2pG7cTwmOzENp-98" value="" style="endArrow=none;html=1;rounded=0;exitX=0.5;exitY=0;exitDx=0;exitDy=0;entryX=0.25;entryY=1;entryDx=0;entryDy=0;" edge="1" parent="1" source="LdDLsfg2pG7cTwmOzENp-96" target="LdDLsfg2pG7cTwmOzENp-94">
          <mxGeometry relative="1" as="geometry">
            <mxPoint x="340" y="700" as="sourcePoint" />
            <mxPoint x="255" y="590" as="targetPoint" />
          </mxGeometry>
        </mxCell>
        <mxCell id="LdDLsfg2pG7cTwmOzENp-99" value="" style="endArrow=none;html=1;rounded=0;exitX=0.5;exitY=0;exitDx=0;exitDy=0;entryX=0.5;entryY=1;entryDx=0;entryDy=0;" edge="1" parent="1" source="LdDLsfg2pG7cTwmOzENp-95" target="LdDLsfg2pG7cTwmOzENp-94">
          <mxGeometry relative="1" as="geometry">
            <mxPoint x="640" y="730" as="sourcePoint" />
            <mxPoint x="675" y="650" as="targetPoint" />
          </mxGeometry>
        </mxCell>
        <mxCell id="LdDLsfg2pG7cTwmOzENp-100" value="" style="endArrow=none;html=1;rounded=0;exitX=1;exitY=1;exitDx=0;exitDy=0;entryX=0;entryY=0;entryDx=0;entryDy=0;" edge="1" parent="1" source="xOjnY0KziKzDUrAcWFAt-1" target="LdDLsfg2pG7cTwmOzENp-97">
          <mxGeometry relative="1" as="geometry">
            <mxPoint x="230" y="370" as="sourcePoint" />
            <mxPoint x="280" y="330" as="targetPoint" />
          </mxGeometry>
        </mxCell>
        <mxCell id="LdDLsfg2pG7cTwmOzENp-101" value="1" style="resizable=0;html=1;whiteSpace=wrap;align=right;verticalAlign=bottom;" connectable="0" vertex="1" parent="LdDLsfg2pG7cTwmOzENp-100">
          <mxGeometry x="1" relative="1" as="geometry">
            <mxPoint y="-5" as="offset" />
          </mxGeometry>
        </mxCell>
        <mxCell id="LdDLsfg2pG7cTwmOzENp-102" value="" style="shape=link;html=1;rounded=0;exitX=0;exitY=0.25;exitDx=0;exitDy=0;entryX=1;entryY=1;entryDx=0;entryDy=0;" edge="1" parent="1" source="LdDLsfg2pG7cTwmOzENp-94" target="LdDLsfg2pG7cTwmOzENp-97">
          <mxGeometry relative="1" as="geometry">
            <mxPoint x="230" y="370" as="sourcePoint" />
            <mxPoint x="390" y="370" as="targetPoint" />
          </mxGeometry>
        </mxCell>
        <mxCell id="LdDLsfg2pG7cTwmOzENp-103" value="1" style="resizable=0;html=1;whiteSpace=wrap;align=right;verticalAlign=bottom;" connectable="0" vertex="1" parent="LdDLsfg2pG7cTwmOzENp-102">
          <mxGeometry x="1" relative="1" as="geometry">
            <mxPoint x="30" y="5" as="offset" />
          </mxGeometry>
        </mxCell>
        <mxCell id="LdDLsfg2pG7cTwmOzENp-104" value="has" style="shape=rhombus;double=1;perimeter=rhombusPerimeter;whiteSpace=wrap;html=1;align=center;" vertex="1" parent="1">
          <mxGeometry x="600" y="390" width="120" height="60" as="geometry" />
        </mxCell>
        <mxCell id="LdDLsfg2pG7cTwmOzENp-110" value="&lt;pre style=&quot;user-select: text; font-family: &amp;quot;Courier New&amp;quot;, Courier, monospace, arial, sans-serif; margin-top: 0px; margin-bottom: 0px; text-wrap-mode: wrap; overflow-wrap: break-word; background-color: rgb(255, 255, 255); font-size: 14px; text-align: left;&quot; class=&quot;ndfHFb-c4YZDc-fmcmS-DARUcf&quot;&gt;Payments&lt;/pre&gt;" style="rounded=1;arcSize=10;whiteSpace=wrap;html=1;align=center;" vertex="1" parent="1">
          <mxGeometry x="-630" y="550" width="100" height="40" as="geometry" />
        </mxCell>
        <mxCell id="LdDLsfg2pG7cTwmOzENp-111" value="_id" style="ellipse;whiteSpace=wrap;html=1;align=center;fontStyle=4;" vertex="1" parent="1">
          <mxGeometry x="-755" y="630" width="100" height="40" as="geometry" />
        </mxCell>
        <mxCell id="LdDLsfg2pG7cTwmOzENp-112" value="&lt;pre style=&quot;user-select: text; font-family: &amp;quot;Courier New&amp;quot;, Courier, monospace, arial, sans-serif; margin-top: 0px; margin-bottom: 0px; text-wrap-mode: wrap; overflow-wrap: break-word; background-color: rgb(255, 255, 255); font-size: 14px; text-align: left;&quot; class=&quot;ndfHFb-c4YZDc-fmcmS-DARUcf&quot;&gt;createdAt&lt;/pre&gt;" style="ellipse;whiteSpace=wrap;html=1;align=center;" vertex="1" parent="1">
          <mxGeometry x="-625" y="680" width="100" height="40" as="geometry" />
        </mxCell>
        <mxCell id="LdDLsfg2pG7cTwmOzENp-113" value="&lt;pre style=&quot;user-select: text; font-family: &amp;quot;Courier New&amp;quot;, Courier, monospace, arial, sans-serif; margin-top: 0px; margin-bottom: 0px; text-wrap-mode: wrap; overflow-wrap: break-word; background-color: rgb(255, 255, 255); font-size: 14px; text-align: left;&quot; class=&quot;ndfHFb-c4YZDc-fmcmS-DARUcf&quot;&gt;session&lt;/pre&gt;" style="ellipse;whiteSpace=wrap;html=1;align=center;" vertex="1" parent="1">
          <mxGeometry x="-730" y="680" width="100" height="40" as="geometry" />
        </mxCell>
        <mxCell id="LdDLsfg2pG7cTwmOzENp-114" value="" style="endArrow=none;html=1;rounded=0;exitX=1;exitY=0;exitDx=0;exitDy=0;entryX=0;entryY=1;entryDx=0;entryDy=0;" edge="1" parent="1" source="LdDLsfg2pG7cTwmOzENp-111" target="LdDLsfg2pG7cTwmOzENp-110">
          <mxGeometry relative="1" as="geometry">
            <mxPoint x="-380" y="816" as="sourcePoint" />
            <mxPoint x="-270" y="680" as="targetPoint" />
          </mxGeometry>
        </mxCell>
        <mxCell id="LdDLsfg2pG7cTwmOzENp-115" value="" style="endArrow=none;html=1;rounded=0;exitX=1;exitY=0;exitDx=0;exitDy=0;entryX=0.25;entryY=1;entryDx=0;entryDy=0;" edge="1" parent="1" source="LdDLsfg2pG7cTwmOzENp-113" target="LdDLsfg2pG7cTwmOzENp-110">
          <mxGeometry relative="1" as="geometry">
            <mxPoint x="-700" y="706" as="sourcePoint" />
            <mxPoint x="-610" y="630" as="targetPoint" />
          </mxGeometry>
        </mxCell>
        <mxCell id="LdDLsfg2pG7cTwmOzENp-116" value="" style="endArrow=none;html=1;rounded=0;exitX=0.5;exitY=0;exitDx=0;exitDy=0;entryX=0.5;entryY=1;entryDx=0;entryDy=0;" edge="1" parent="1" source="LdDLsfg2pG7cTwmOzENp-112" target="LdDLsfg2pG7cTwmOzENp-110">
          <mxGeometry relative="1" as="geometry">
            <mxPoint x="-690" y="716" as="sourcePoint" />
            <mxPoint x="-600" y="640" as="targetPoint" />
          </mxGeometry>
        </mxCell>
        <mxCell id="LdDLsfg2pG7cTwmOzENp-117" value="pay" style="shape=rhombus;double=1;perimeter=rhombusPerimeter;whiteSpace=wrap;html=1;align=center;" vertex="1" parent="1">
          <mxGeometry x="-610" y="390" width="120" height="60" as="geometry" />
        </mxCell>
        <mxCell id="LdDLsfg2pG7cTwmOzENp-118" value="" style="shape=link;html=1;rounded=0;exitX=0.75;exitY=0;exitDx=0;exitDy=0;entryX=0.5;entryY=1;entryDx=0;entryDy=0;" edge="1" parent="1" source="LdDLsfg2pG7cTwmOzENp-110" target="LdDLsfg2pG7cTwmOzENp-117">
          <mxGeometry relative="1" as="geometry">
            <mxPoint x="35" y="570" as="sourcePoint" />
            <mxPoint x="50" y="450" as="targetPoint" />
          </mxGeometry>
        </mxCell>
        <mxCell id="LdDLsfg2pG7cTwmOzENp-119" value="N" style="resizable=0;html=1;whiteSpace=wrap;align=right;verticalAlign=bottom;" connectable="0" vertex="1" parent="LdDLsfg2pG7cTwmOzENp-118">
          <mxGeometry x="1" relative="1" as="geometry">
            <mxPoint x="-10" y="10" as="offset" />
          </mxGeometry>
        </mxCell>
        <mxCell id="LdDLsfg2pG7cTwmOzENp-122" value="" style="endArrow=none;html=1;rounded=0;exitX=0.25;exitY=1;exitDx=0;exitDy=0;entryX=0.5;entryY=0;entryDx=0;entryDy=0;" edge="1" parent="1" source="xOjnY0KziKzDUrAcWFAt-1" target="LdDLsfg2pG7cTwmOzENp-117">
          <mxGeometry relative="1" as="geometry">
            <mxPoint x="60" y="220" as="sourcePoint" />
            <mxPoint x="50" y="390" as="targetPoint" />
          </mxGeometry>
        </mxCell>
        <mxCell id="LdDLsfg2pG7cTwmOzENp-123" value="1" style="resizable=0;html=1;whiteSpace=wrap;align=right;verticalAlign=bottom;" connectable="0" vertex="1" parent="LdDLsfg2pG7cTwmOzENp-122">
          <mxGeometry x="1" relative="1" as="geometry">
            <mxPoint as="offset" />
          </mxGeometry>
        </mxCell>
        <mxCell id="_jiPs9pSwT7T86VHgQq--1" value="&lt;pre style=&quot;user-select: text; font-family: &amp;quot;Courier New&amp;quot;, Courier, monospace, arial, sans-serif; margin-top: 0px; margin-bottom: 0px; text-wrap-mode: wrap; overflow-wrap: break-word; background-color: rgb(255, 255, 255); font-size: 14px; text-align: left;&quot; class=&quot;ndfHFb-c4YZDc-fmcmS-DARUcf&quot;&gt;updatedAt&lt;/pre&gt;" style="ellipse;whiteSpace=wrap;html=1;align=center;" vertex="1" parent="1">
          <mxGeometry x="720" y="720" width="100" height="40" as="geometry" />
        </mxCell>
        <mxCell id="_jiPs9pSwT7T86VHgQq--2" value="" style="endArrow=none;html=1;rounded=0;exitX=0.5;exitY=0;exitDx=0;exitDy=0;entryX=0.75;entryY=1;entryDx=0;entryDy=0;" edge="1" parent="1" source="_jiPs9pSwT7T86VHgQq--1" target="LdDLsfg2pG7cTwmOzENp-94">
          <mxGeometry relative="1" as="geometry">
            <mxPoint x="670" y="730" as="sourcePoint" />
            <mxPoint x="700" y="650" as="targetPoint" />
          </mxGeometry>
        </mxCell>
        <mxCell id="_jiPs9pSwT7T86VHgQq--3" value="&lt;pre style=&quot;user-select: text; font-family: &amp;quot;Courier New&amp;quot;, Courier, monospace, arial, sans-serif; margin-top: 0px; margin-bottom: 0px; text-wrap-mode: wrap; overflow-wrap: break-word; background-color: rgb(255, 255, 255); font-size: 14px; text-align: left;&quot; class=&quot;ndfHFb-c4YZDc-fmcmS-DARUcf&quot;&gt;updatedAt&lt;/pre&gt;" style="ellipse;whiteSpace=wrap;html=1;align=center;" vertex="1" parent="1">
          <mxGeometry x="750" y="270" width="100" height="40" as="geometry" />
        </mxCell>
        <mxCell id="_jiPs9pSwT7T86VHgQq--4" value="" style="endArrow=none;html=1;rounded=0;exitX=0;exitY=0;exitDx=0;exitDy=0;entryX=0.75;entryY=1;entryDx=0;entryDy=0;" edge="1" parent="1" source="_jiPs9pSwT7T86VHgQq--3" target="LdDLsfg2pG7cTwmOzENp-2">
          <mxGeometry relative="1" as="geometry">
            <mxPoint x="700" y="280" as="sourcePoint" />
            <mxPoint x="745" y="190" as="targetPoint" />
          </mxGeometry>
        </mxCell>
        <mxCell id="_jiPs9pSwT7T86VHgQq--5" value="&lt;pre style=&quot;user-select: text; font-family: &amp;quot;Courier New&amp;quot;, Courier, monospace, arial, sans-serif; margin-top: 0px; margin-bottom: 0px; text-wrap-mode: wrap; overflow-wrap: break-word; background-color: rgb(255, 255, 255); font-size: 14px; text-align: left;&quot; class=&quot;ndfHFb-c4YZDc-fmcmS-DARUcf&quot;&gt;updatedAt&lt;/pre&gt;" style="ellipse;whiteSpace=wrap;html=1;align=center;" vertex="1" parent="1">
          <mxGeometry x="30" y="720" width="100" height="40" as="geometry" />
        </mxCell>
        <mxCell id="_jiPs9pSwT7T86VHgQq--6" value="" style="endArrow=none;html=1;rounded=0;exitX=0.5;exitY=0;exitDx=0;exitDy=0;entryX=0.75;entryY=1;entryDx=0;entryDy=0;" edge="1" parent="1" source="_jiPs9pSwT7T86VHgQq--5" target="LdDLsfg2pG7cTwmOzENp-63">
          <mxGeometry relative="1" as="geometry">
            <mxPoint x="580" y="720" as="sourcePoint" />
            <mxPoint x="625" y="630" as="targetPoint" />
          </mxGeometry>
        </mxCell>
        <mxCell id="_jiPs9pSwT7T86VHgQq--7" value="&lt;pre style=&quot;user-select: text; font-family: &amp;quot;Courier New&amp;quot;, Courier, monospace, arial, sans-serif; margin-top: 0px; margin-bottom: 0px; text-wrap-mode: wrap; overflow-wrap: break-word; background-color: rgb(255, 255, 255); font-size: 14px; text-align: left;&quot; class=&quot;ndfHFb-c4YZDc-fmcmS-DARUcf&quot;&gt;updatedAt&lt;/pre&gt;" style="ellipse;whiteSpace=wrap;html=1;align=center;" vertex="1" parent="1">
          <mxGeometry x="-525" y="670" width="100" height="40" as="geometry" />
        </mxCell>
        <mxCell id="_jiPs9pSwT7T86VHgQq--8" value="" style="endArrow=none;html=1;rounded=0;exitX=0.5;exitY=0;exitDx=0;exitDy=0;entryX=0.75;entryY=1;entryDx=0;entryDy=0;" edge="1" parent="1" source="_jiPs9pSwT7T86VHgQq--7" target="LdDLsfg2pG7cTwmOzENp-110">
          <mxGeometry relative="1" as="geometry">
            <mxPoint x="-575" y="680" as="sourcePoint" />
            <mxPoint x="-530" y="590" as="targetPoint" />
          </mxGeometry>
        </mxCell>
        <mxCell id="_jiPs9pSwT7T86VHgQq--9" value="&lt;pre style=&quot;user-select: text; font-family: &amp;quot;Courier New&amp;quot;, Courier, monospace, arial, sans-serif; margin-top: 0px; margin-bottom: 0px; text-wrap-mode: wrap; overflow-wrap: break-word; background-color: rgb(255, 255, 255); font-size: 14px; text-align: left;&quot; class=&quot;ndfHFb-c4YZDc-fmcmS-DARUcf&quot;&gt;updatedAt&lt;/pre&gt;" style="ellipse;whiteSpace=wrap;html=1;align=center;" vertex="1" parent="1">
          <mxGeometry x="-830" y="230" width="100" height="40" as="geometry" />
        </mxCell>
        <mxCell id="_jiPs9pSwT7T86VHgQq--10" value="" style="endArrow=none;html=1;rounded=0;exitX=1;exitY=0.5;exitDx=0;exitDy=0;entryX=0;entryY=0.75;entryDx=0;entryDy=0;" edge="1" parent="1" source="_jiPs9pSwT7T86VHgQq--9" target="xOjnY0KziKzDUrAcWFAt-1">
          <mxGeometry relative="1" as="geometry">
            <mxPoint x="-870" y="250" as="sourcePoint" />
            <mxPoint x="-825" y="160" as="targetPoint" />
          </mxGeometry>
        </mxCell>
        <mxCell id="_jiPs9pSwT7T86VHgQq--11" value="&lt;pre style=&quot;user-select: text; font-family: &amp;quot;Courier New&amp;quot;, Courier, monospace, arial, sans-serif; margin-top: 0px; margin-bottom: 0px; text-wrap-mode: wrap; overflow-wrap: break-word; background-color: rgb(255, 255, 255); font-size: 14px; text-align: left;&quot; class=&quot;ndfHFb-c4YZDc-fmcmS-DARUcf&quot;&gt;updatedAt&lt;/pre&gt;" style="ellipse;whiteSpace=wrap;html=1;align=center;" vertex="1" parent="1">
          <mxGeometry x="270" y="75" width="100" height="40" as="geometry" />
        </mxCell>
        <mxCell id="_jiPs9pSwT7T86VHgQq--12" value="" style="endArrow=none;html=1;rounded=0;exitX=0;exitY=1;exitDx=0;exitDy=0;entryX=1;entryY=0;entryDx=0;entryDy=0;" edge="1" parent="1" source="_jiPs9pSwT7T86VHgQq--11" target="_jiPs9pSwT7T86VHgQq--22">
          <mxGeometry relative="1" as="geometry">
            <mxPoint x="660" y="654.91" as="sourcePoint" />
            <mxPoint x="170" y="135" as="targetPoint" />
          </mxGeometry>
        </mxCell>
        <mxCell id="_jiPs9pSwT7T86VHgQq--18" value="" style="endArrow=none;html=1;rounded=0;exitX=0.25;exitY=1;exitDx=0;exitDy=0;entryX=1;entryY=0;entryDx=0;entryDy=0;" edge="1" parent="1" source="LdDLsfg2pG7cTwmOzENp-2" target="LdDLsfg2pG7cTwmOzENp-82">
          <mxGeometry relative="1" as="geometry">
            <mxPoint x="80" y="230" as="sourcePoint" />
            <mxPoint x="280" y="350" as="targetPoint" />
          </mxGeometry>
        </mxCell>
        <mxCell id="_jiPs9pSwT7T86VHgQq--19" value="N" style="resizable=0;html=1;whiteSpace=wrap;align=right;verticalAlign=bottom;" connectable="0" vertex="1" parent="_jiPs9pSwT7T86VHgQq--18">
          <mxGeometry x="1" relative="1" as="geometry">
            <mxPoint x="20" y="5" as="offset" />
          </mxGeometry>
        </mxCell>
        <mxCell id="_jiPs9pSwT7T86VHgQq--20" value="" style="endArrow=none;html=1;rounded=0;exitX=0.5;exitY=1;exitDx=0;exitDy=0;entryX=0.5;entryY=0;entryDx=0;entryDy=0;" edge="1" parent="1" source="LdDLsfg2pG7cTwmOzENp-2" target="LdDLsfg2pG7cTwmOzENp-104">
          <mxGeometry relative="1" as="geometry">
            <mxPoint x="605" y="190" as="sourcePoint" />
            <mxPoint x="500" y="415" as="targetPoint" />
          </mxGeometry>
        </mxCell>
        <mxCell id="_jiPs9pSwT7T86VHgQq--21" value="N" style="resizable=0;html=1;whiteSpace=wrap;align=right;verticalAlign=bottom;" connectable="0" vertex="1" parent="_jiPs9pSwT7T86VHgQq--20">
          <mxGeometry x="1" relative="1" as="geometry">
            <mxPoint x="-10" as="offset" />
          </mxGeometry>
        </mxCell>
        <mxCell id="_jiPs9pSwT7T86VHgQq--22" value="&lt;pre style=&quot;user-select: text; font-family: &amp;quot;Courier New&amp;quot;, Courier, monospace, arial, sans-serif; margin-top: 0px; margin-bottom: 0px; text-wrap-mode: wrap; overflow-wrap: break-word; background-color: rgb(255, 255, 255); font-size: 14px; text-align: left;&quot; class=&quot;ndfHFb-c4YZDc-fmcmS-DARUcf&quot;&gt;&lt;span style=&quot;font-family: Helvetica; font-size: 12px; text-align: center; white-space-collapse: collapse; background-color: rgb(251, 251, 251);&quot;&gt;Reviews&lt;/span&gt;&lt;/pre&gt;" style="rounded=1;arcSize=10;whiteSpace=wrap;html=1;align=center;" vertex="1" parent="1">
          <mxGeometry x="90" y="115" width="100" height="40" as="geometry" />
        </mxCell>
        <mxCell id="_jiPs9pSwT7T86VHgQq--23" value="_id" style="ellipse;whiteSpace=wrap;html=1;align=center;fontStyle=4;" vertex="1" parent="1">
          <mxGeometry x="-70" y="55" width="100" height="40" as="geometry" />
        </mxCell>
        <mxCell id="_jiPs9pSwT7T86VHgQq--24" value="" style="endArrow=none;html=1;rounded=0;exitX=1;exitY=1;exitDx=0;exitDy=0;entryX=0;entryY=0;entryDx=0;entryDy=0;" edge="1" parent="1" source="_jiPs9pSwT7T86VHgQq--23" target="_jiPs9pSwT7T86VHgQq--22">
          <mxGeometry relative="1" as="geometry">
            <mxPoint x="260" y="275" as="sourcePoint" />
            <mxPoint x="80" y="105" as="targetPoint" />
          </mxGeometry>
        </mxCell>
        <mxCell id="_jiPs9pSwT7T86VHgQq--25" value="is reviewed" style="shape=rhombus;double=1;perimeter=rhombusPerimeter;whiteSpace=wrap;html=1;align=center;" vertex="1" parent="1">
          <mxGeometry x="350" y="160" width="120" height="60" as="geometry" />
        </mxCell>
        <mxCell id="_jiPs9pSwT7T86VHgQq--26" value="&lt;code data-end=&quot;365&quot; data-start=&quot;357&quot;&gt;writes&lt;/code&gt;" style="shape=rhombus;double=1;perimeter=rhombusPerimeter;whiteSpace=wrap;html=1;align=center;" vertex="1" parent="1">
          <mxGeometry x="-190" y="160" width="120" height="60" as="geometry" />
        </mxCell>
        <mxCell id="_jiPs9pSwT7T86VHgQq--29" value="" style="endArrow=none;html=1;rounded=0;exitX=1;exitY=0.5;exitDx=0;exitDy=0;entryX=0;entryY=0.5;entryDx=0;entryDy=0;" edge="1" parent="1" source="xOjnY0KziKzDUrAcWFAt-1" target="_jiPs9pSwT7T86VHgQq--26">
          <mxGeometry relative="1" as="geometry">
            <mxPoint x="650" y="640" as="sourcePoint" />
            <mxPoint x="210" y="415" as="targetPoint" />
          </mxGeometry>
        </mxCell>
        <mxCell id="_jiPs9pSwT7T86VHgQq--30" value="1" style="resizable=0;html=1;whiteSpace=wrap;align=right;verticalAlign=bottom;" connectable="0" vertex="1" parent="_jiPs9pSwT7T86VHgQq--29">
          <mxGeometry x="1" relative="1" as="geometry">
            <mxPoint as="offset" />
          </mxGeometry>
        </mxCell>
        <mxCell id="_jiPs9pSwT7T86VHgQq--31" value="" style="shape=link;html=1;rounded=0;exitX=0;exitY=0.5;exitDx=0;exitDy=0;entryX=1;entryY=0.5;entryDx=0;entryDy=0;" edge="1" parent="1" source="_jiPs9pSwT7T86VHgQq--22" target="_jiPs9pSwT7T86VHgQq--26">
          <mxGeometry relative="1" as="geometry">
            <mxPoint x="-75" y="605" as="sourcePoint" />
            <mxPoint x="-30" y="195" as="targetPoint" />
          </mxGeometry>
        </mxCell>
        <mxCell id="_jiPs9pSwT7T86VHgQq--32" value="N" style="resizable=0;html=1;whiteSpace=wrap;align=right;verticalAlign=bottom;" connectable="0" vertex="1" parent="_jiPs9pSwT7T86VHgQq--31">
          <mxGeometry x="1" relative="1" as="geometry">
            <mxPoint as="offset" />
          </mxGeometry>
        </mxCell>
        <mxCell id="_jiPs9pSwT7T86VHgQq--33" value="" style="shape=link;html=1;rounded=0;exitX=1;exitY=0.5;exitDx=0;exitDy=0;entryX=0;entryY=0.5;entryDx=0;entryDy=0;" edge="1" parent="1" source="_jiPs9pSwT7T86VHgQq--22" target="_jiPs9pSwT7T86VHgQq--25">
          <mxGeometry relative="1" as="geometry">
            <mxPoint x="100" y="145" as="sourcePoint" />
            <mxPoint x="345" y="185" as="targetPoint" />
          </mxGeometry>
        </mxCell>
        <mxCell id="_jiPs9pSwT7T86VHgQq--34" value="N" style="resizable=0;html=1;whiteSpace=wrap;align=right;verticalAlign=bottom;" connectable="0" vertex="1" parent="_jiPs9pSwT7T86VHgQq--33">
          <mxGeometry x="1" relative="1" as="geometry">
            <mxPoint x="10" y="-10" as="offset" />
          </mxGeometry>
        </mxCell>
        <mxCell id="_jiPs9pSwT7T86VHgQq--35" value="" style="endArrow=none;html=1;rounded=0;exitX=0;exitY=0.5;exitDx=0;exitDy=0;entryX=1;entryY=0.5;entryDx=0;entryDy=0;" edge="1" parent="1" source="LdDLsfg2pG7cTwmOzENp-2" target="_jiPs9pSwT7T86VHgQq--25">
          <mxGeometry relative="1" as="geometry">
            <mxPoint x="-410" y="220" as="sourcePoint" />
            <mxPoint x="-180" y="200" as="targetPoint" />
          </mxGeometry>
        </mxCell>
        <mxCell id="_jiPs9pSwT7T86VHgQq--36" value="1" style="resizable=0;html=1;whiteSpace=wrap;align=right;verticalAlign=bottom;" connectable="0" vertex="1" parent="_jiPs9pSwT7T86VHgQq--35">
          <mxGeometry x="1" relative="1" as="geometry">
            <mxPoint x="5" as="offset" />
          </mxGeometry>
        </mxCell>
        <mxCell id="jue_h3hc_52jJk-0ntHb-1" value="" style="shape=link;html=1;rounded=0;exitX=1;exitY=0;exitDx=0;exitDy=0;entryX=0;entryY=1;entryDx=0;entryDy=0;" edge="1" parent="1" source="LdDLsfg2pG7cTwmOzENp-63" target="LdDLsfg2pG7cTwmOzENp-82">
          <mxGeometry relative="1" as="geometry">
            <mxPoint x="200" y="145" as="sourcePoint" />
            <mxPoint x="460" y="480" as="targetPoint" />
          </mxGeometry>
        </mxCell>
        <mxCell id="jue_h3hc_52jJk-0ntHb-2" value="N" style="resizable=0;html=1;whiteSpace=wrap;align=right;verticalAlign=bottom;" connectable="0" vertex="1" parent="jue_h3hc_52jJk-0ntHb-1">
          <mxGeometry x="1" relative="1" as="geometry">
            <mxPoint y="25" as="offset" />
          </mxGeometry>
        </mxCell>
        <mxCell id="jue_h3hc_52jJk-0ntHb-3" value="" style="shape=link;html=1;rounded=0;exitX=0.5;exitY=0;exitDx=0;exitDy=0;entryX=0.5;entryY=1;entryDx=0;entryDy=0;" edge="1" parent="1" source="LdDLsfg2pG7cTwmOzENp-94" target="LdDLsfg2pG7cTwmOzENp-104">
          <mxGeometry relative="1" as="geometry">
            <mxPoint x="200" y="145" as="sourcePoint" />
            <mxPoint x="360" y="200" as="targetPoint" />
          </mxGeometry>
        </mxCell>
        <mxCell id="jue_h3hc_52jJk-0ntHb-4" value="N" style="resizable=0;html=1;whiteSpace=wrap;align=right;verticalAlign=bottom;" connectable="0" vertex="1" parent="jue_h3hc_52jJk-0ntHb-3">
          <mxGeometry x="1" relative="1" as="geometry">
            <mxPoint x="20" y="10" as="offset" />
          </mxGeometry>
        </mxCell>
      </root>
    </mxGraphModel>
  </diagram>
</mxfile>
